<svg xmlns="http://www.w3.org/2000/svg" xml:space="preserve" viewBox="0 0 182.695 250.472"><path fill="#69913e" d="M8.052 250.47H.058V61.221c0-17.763 14.397-32.164 32.168-32.164 17.763 0 32.168 14.4 32.168 32.164v132.907c0 31.12-25.229 56.342-56.342 56.342"/><path fill="#96be49" d="M55.518 92.755c0 9.24-7.49 16.733-16.727 16.733H25.667c-9.24 0-16.733-7.494-16.733-16.733 0-9.237 7.493-16.73 16.733-16.73h13.124c9.237 0 16.727 7.493 16.727 16.73m0 43.306c0 9.24-7.49 16.726-16.727 16.726H25.667c-9.24 0-16.733-7.486-16.733-16.726 0-9.24 7.493-16.733 16.733-16.733h13.124c9.237 0 16.727 7.493 16.727 16.733m0 43.299c0 9.243-7.49 16.733-16.727 16.733H25.667c-9.24 0-16.733-7.49-16.733-16.733 0-9.24 7.493-16.726 16.733-16.726h13.124c9.237 0 16.727 7.486 16.727 16.726"/><path fill="#475f2b" d="M62.605 42.89C58.241 30.295 46.3 21.239 32.225 21.239c-14.076 0-26.011 9.056-30.375 21.65h60.755"/><path fill="#475f2b" d="M37.387 22.7a5.163 5.163 0 1 1-10.326 0V5.146a5.163 5.163 0 1 1 10.326 0V22.7"/><path fill="#77aa42" d="m154.676 232.082-6.915 4.012L52.826 72.38c-8.912-15.375-3.676-35.054 11.692-43.965 15.371-8.912 35.054-3.68 43.966 11.691l66.672 114.974c15.608 26.915 6.431 61.395-20.48 77.002"/><path fill="#96be49" d="M116.626 71.834c4.636 7.998 1.912 18.236-6.086 22.868l-11.353 6.583c-7.99 4.633-18.229 1.913-22.865-6.082-4.632-7.99-1.912-18.233 6.086-22.865l11.35-6.583c7.994-4.636 18.229-1.912 22.868 6.079m21.722 37.463c4.632 7.991 1.912 18.23-6.082 22.865l-11.353 6.584c-7.995 4.635-18.23 1.912-22.869-6.08-4.632-7.997-1.908-18.235 6.082-22.868l11.357-6.583c7.991-4.632 18.226-1.912 22.865 6.082m21.722 37.457c4.632 7.998 1.916 18.236-6.082 22.869l-11.353 6.583c-7.991 4.636-18.23 1.912-22.865-6.082-4.636-7.991-1.913-18.226 6.082-22.865l11.353-6.58c7.99-4.64 18.23-1.912 22.865 6.075"/><path fill="#557837" d="M97.737 25.144c-10.097-8.707-24.964-10.552-37.143-3.493-12.175 7.063-17.957 20.886-15.41 33.968l52.553-30.475"/><path fill="#557837" d="M65.795 20.328c1.436 2.463.592 5.624-1.877 7.056a5.17 5.17 0 0 1-7.06-1.877l-8.806-15.184a5.162 5.162 0 0 1 1.88-7.056 5.165 5.165 0 0 1 7.06 1.873l8.803 15.188"/></svg>