<svg xmlns="http://www.w3.org/2000/svg" xml:space="preserve" viewBox="0 0 229.306 244.038"><path fill="#93be43" d="m153.668 134.333-20.8-8.213-18.124 45.889L96.62 126.12l-20.805 8.213 16.589 42.015v67.632h44.738v-67.79l16.525-41.857"/><path fill="#5b8039" d="M109.73 93.285c-.003-3.292-1.583-6.185-3.997-8.051 1.719-2.523 2.329-5.765 1.316-8.89-1.02-3.13-3.418-5.391-6.294-6.422.858-2.931.438-6.205-1.496-8.862-1.936-2.66-4.914-4.071-7.966-4.163-.091-3.052-1.503-6.036-4.163-7.966-2.663-1.933-5.93-2.353-8.862-1.496-1.03-2.875-3.295-5.274-6.421-6.29-3.13-1.016-6.375-.406-8.894 1.316-1.866-2.417-4.763-3.998-8.048-3.998-3.291 0-6.188 1.58-8.054 3.998-2.519-1.719-5.761-2.329-8.887-1.313-3.13 1.016-5.39 3.415-6.424 6.29-2.932-.853-6.203-.433-8.863 1.496-2.656 1.937-4.068 4.915-4.16 7.97-3.051.088-6.032 1.5-7.966 4.16-1.933 2.66-2.353 5.934-1.495 8.862-2.876 1.034-5.275 3.295-6.29 6.421-1.02 3.13-.407 6.372 1.312 8.894-2.414 1.866-3.994 4.76-3.994 8.047-.004 3.292 1.58 6.185 3.994 8.051-1.715 2.526-2.325 5.765-1.31 8.89 1.013 3.13 3.416 5.392 6.291 6.425-.857 2.929-.437 6.2 1.496 8.86 1.933 2.663 4.914 4.074 7.966 4.162.092 3.052 1.507 6.033 4.167 7.963 2.656 1.933 5.93 2.357 8.859 1.5 1.033 2.875 3.295 5.27 6.424 6.29 3.126 1.016 6.365.402 8.887-1.316 1.87 2.416 4.763 3.997 8.051 3.997 3.292 0 6.185-1.58 8.05-3.997 2.523 1.718 5.766 2.328 8.891 1.316 3.133-1.02 5.395-3.419 6.421-6.294 2.932.857 6.203.434 8.863-1.496 2.663-1.933 4.071-4.915 4.163-7.966 3.052-.096 6.033-1.503 7.966-4.163 1.93-2.66 2.353-5.934 1.496-8.863 2.875-1.03 5.274-3.295 6.29-6.42 1.016-3.13.406-6.372-1.316-8.895 2.417-1.87 3.998-4.759 3.998-8.047m119.673 0c-.004-3.292-1.584-6.185-3.997-8.051 1.718-2.523 2.328-5.765 1.316-8.89-1.02-3.13-3.419-5.391-6.294-6.422.853-2.931.437-6.205-1.496-8.862-1.934-2.66-4.915-4.071-7.966-4.163-.092-3.052-1.503-6.036-4.163-7.966-2.66-1.933-5.931-2.353-8.863-1.496-1.026-2.875-3.295-5.274-6.42-6.29-3.13-1.016-6.376-.406-8.895 1.316-1.866-2.417-4.76-3.998-8.047-3.998-3.292 0-6.188 1.58-8.055 3.998-2.519-1.719-5.76-2.329-8.887-1.313-3.129 1.016-5.39 3.415-6.424 6.29-2.932-.853-6.202-.433-8.859 1.496-2.66 1.937-4.071 4.915-4.163 7.97-3.052.088-6.033 1.5-7.966 4.16-1.934 2.66-2.353 5.934-1.496 8.862-2.875 1.034-5.271 3.295-6.29 6.421-1.02 3.13-.406 6.372 1.312 8.894-2.413 1.866-3.994 4.76-3.994 8.047-.003 3.292 1.58 6.185 3.994 8.051-1.715 2.526-2.325 5.765-1.309 8.89 1.016 3.13 3.415 5.392 6.29 6.425-.857 2.929-.437 6.2 1.496 8.86 1.934 2.663 4.915 4.074 7.966 4.162.092 3.052 1.507 6.033 4.167 7.963 2.657 1.933 5.93 2.357 8.859 1.5 1.034 2.875 3.295 5.27 6.424 6.29 3.126 1.016 6.365.402 8.887-1.316 1.87 2.416 4.763 3.997 8.051 3.997 3.292 0 6.185-1.58 8.051-3.997 2.523 1.718 5.765 2.328 8.89 1.316 3.134-1.02 5.395-3.419 6.422-6.294 2.931.857 6.202.434 8.862-1.496 2.664-1.933 4.071-4.915 4.163-7.966 3.052-.096 6.033-1.503 7.966-4.163 1.93-2.66 2.353-5.934 1.496-8.863 2.875-1.03 5.275-3.295 6.29-6.42 1.017-3.13.406-6.372-1.312-8.895 2.413-1.87 3.994-4.759 3.994-8.047"/><path fill="#77aa42" d="M183.522 68.698c-.003-4.124-1.99-7.758-5.017-10.1 2.156-3.165 2.925-7.23 1.648-11.152-1.277-3.924-4.287-6.764-7.889-8.055 1.073-3.68.547-7.783-1.88-11.12-2.424-3.338-6.167-5.105-9.995-5.222-.113-3.827-1.887-7.567-5.221-9.99-3.341-2.428-7.444-2.954-11.12-1.881-1.292-3.606-4.132-6.615-8.055-7.889-3.927-1.277-7.994-.508-11.156 1.651-2.342-3.03-5.972-5.013-10.1-5.013S106.982 1.91 104.64 4.94c-3.165-2.155-7.23-2.92-11.152-1.647-3.927 1.277-6.767 4.286-8.058 7.892-3.676-1.073-7.78-.547-11.117 1.88-3.337 2.424-5.109 6.164-5.221 9.992-3.828.116-7.568 1.883-9.995 5.225-2.424 3.337-2.953 7.44-1.877 11.116-3.606 1.291-6.615 4.132-7.889 8.055-1.277 3.923-.511 7.99 1.648 11.155-3.027 2.343-5.013 5.973-5.013 10.097 0 4.128 1.986 7.758 5.016 10.101-2.159 3.165-2.924 7.229-1.647 11.152 1.273 3.927 4.283 6.767 7.888 8.058-1.072 3.676-.543 7.78 1.88 11.117 2.425 3.337 6.164 5.108 9.996 5.221.113 3.828 1.884 7.568 5.221 9.991 3.338 2.428 7.44 2.953 11.12 1.88 1.292 3.606 4.132 6.612 8.055 7.89 3.923 1.273 7.987.507 11.152-1.648 2.346 3.03 5.973 5.013 10.097 5.013 4.128 0 7.761-1.986 10.104-5.017 3.161 2.16 7.229 2.925 11.152 1.651 3.923-1.277 6.763-4.286 8.058-7.892 3.676 1.073 7.78.544 11.113-1.88 3.341-2.424 5.109-6.164 5.225-9.995 3.828-.113 7.568-1.884 9.991-5.221 2.424-3.338 2.953-7.444 1.877-11.12 3.61-1.292 6.619-4.132 7.893-8.052 1.273-3.926.508-7.99-1.652-11.159 3.031-2.339 5.017-5.972 5.017-10.097"/></svg>