<svg xmlns="http://www.w3.org/2000/svg" xml:space="preserve" viewBox="0 0 229.306 186.409"><path fill="#1a8d45" d="M134.881 186.35H93.463v-15.83h41.418v15.83"/><path fill="#1a8d45" d="M226.118 43.046c-.674-3.228-20.687 10.623-22.077 12.221-.317.37-.621.741-.899 1.112-2.873-4.925-1.777-5.712-2.725-16.85-.375-4.407-1.178-9.593-5.265-11.286-2.737-1.126-5.687-.286-8.648.55-2.82.794-5.653 1.591-8.324.695-4.391-1.467-6.071-6.6-8.214-10.714-2.738-5.24-7.143-9.603-12.42-12.302-1.456 4.339-4.353 9.246-9.684 8.544C139.528 13.944 139.9.308 130.97.136c-6.908-.142-6.085 10.026-19.762 10.305h-.01l-.021-.007c-4.612-1.637-4.976-2.636-6.903-4.262C101.437 3.78 98.617-.15 94.551-.07c-8.918.176-8.557 13.808-16.893 14.891-5.328.692-8.224-4.209-9.679-8.555A29.046 29.046 0 0 0 55.561 18.58c-2.143 4.103-3.822 9.236-8.21 10.71-2.672.897-5.503.1-8.322-.698-2.962-.836-5.912-1.676-8.65-.547-8.353 3.444-3.822 15.982-5.242 24.446-2.26-2.149-21.272-15.216-21.923-12.077-2.044 9.858-4.733 22.767-2.151 32.687 4.378 16.822 12.985 22.065 12.985 22.065 2.143 43.295 45.677 77.884 99.13 78.018 54.502 0 96.93-34.804 99.7-76.935 0 0 12.698-10.179 15.384-20.516 2.58-9.92-.106-22.833-2.144-32.687"/><path fill="#bbbfcd" d="M189.632 75.486c3.434-29.843-27.706-52.055-56.792-41.478-4.835-5.426-12.43-8.94-20.998-8.94-7.919 0-15.006 3.006-19.854 7.74-28.182-7.296-55.949 13.766-53.572 41.546-8.842 6.474-14.54 16.49-14.54 27.765 0 20.156 18.29 36.758 40.848 35.217 9.591 14.341 27.1 23.94 47.118 23.94 20.265 0 37.953-9.842 47.463-24.477 23.634 4.248 45.464-12.15 45.464-33.819 0-11.244-5.958-21.196-15.137-27.494"/><path fill="#dad2af" d="M173.93 72.555c2.17-18.854-13.432-34.92-33.037-34.92-4.197 0-8.196.769-11.894 2.11-8.047-9.054-23.627-9.523-32.379-.95-2.848-.734-5.834-1.16-8.932-1.16-19.238 0-35.037 15.293-33.435 34.016-7.01 5.123-11.527 13.058-11.527 21.99 0 15.958 14.486 29.1 32.335 27.875 7.592 11.353 21.452 18.953 37.298 18.953 16.042 0 30.043-7.79 37.571-19.376 18.707 3.362 35.989-9.618 35.989-26.77 0-8.902-4.719-16.783-11.988-21.768"/><path fill="#e9e2c1" d="M154.658 70.47c1.467-12.75-9.083-23.631-22.356-23.631-2.84 0-5.546.519-8.048 1.429-2.589-2.914-6.663-4.802-11.26-4.802-4.25 0-8.053 1.616-10.65 4.16a24.136 24.136 0 0 0-6.044-.787c-13.026 0-23.708 10.355-22.625 23.017-4.743 3.468-7.8 8.837-7.8 14.88 0 10.779 9.79 19.708 21.914 18.861 5.14 7.677 14.489 12.828 25.205 12.828 10.851 0 20.306-5.281 25.401-13.113 12.674 2.29 24.375-6.506 24.375-18.113 0-6.026-3.193-11.357-8.112-14.73"/><path fill="#24ae4b" d="M223.344 85.287c-3.082 25.165-26.108 69.234-49.264 79.881-9.796 4.498-16.922 4.713-60.055 9.931 1.739-14.214 8.665-28.686 19.868-39.75 5.704-5.666 12.317-10.128 19.578-13.822 18.865-9.639 37.769-12.288 50.597-19.115 8.387-4.438 17.2-14.26 19.276-17.125M114.025 175.1c-.684-.095-33.73-4.053-34.446-4.138-19.588-2.343-33.346-4.463-49.472-27.635-11.535-16.546-20.35-35.742-22.784-55.502C8.42 90.082 16.14 98.23 23.89 102.349c.04.024.066.052.106.063 9.174 4.893 19.138 6.89 33.004 11.773 15.5 5.405 28.78 11.893 39.524 23.613 8.722 9.494 14.364 21.023 16.654 32.225.313 1.453.615 3.217.847 5.076"/><path fill="#c2e8cd" d="M153.357 135.713c-2.12 0-.573-3.585 2.49-6.463 15.61-14.666 33.069-10.779 47.202-20.516-9.46 11.152-27.555 10.231-38.605 19.806-6.132 5.317-9.56 7.173-11.087 7.173m-70.23 2.31c-1.526 0-4.953-1.855-11.086-7.172-11.05-9.575-29.145-8.654-38.605-19.806 14.12 9.73 31.607 5.86 47.201 20.515 3.063 2.88 4.61 6.464 2.49 6.464"/><path fill="#fff" d="M145.574 63.114c0 4.427-4.788 8.015-10.693 8.015s-10.692-3.588-10.692-8.015c0-4.428 4.787-8.016 10.692-8.016s10.693 3.588 10.693 8.016"/></svg>