<svg xmlns="http://www.w3.org/2000/svg" xml:space="preserve" viewBox="0 0 229.305 235.727"><path fill="#6cbd45" d="M202.357 75.763c-.691-6.428-6.326-11.063-12.584-10.358l-10.489 1.186 4.145-4.555 35.764-4.047c6.262-.72 10.778-6.502 10.086-12.923-.688-6.428-6.322-11.07-12.58-10.362l-9.385 1.066 7.624-8.393c4.304-4.724 4.054-12.133-.55-16.547-4.6-4.413-11.82-4.156-16.123.568l-8.993 9.904-.237-9.96c-.162-6.467-5.394-11.575-11.691-11.41-6.29.16-11.269 5.536-11.11 11.996l.818 33.544c-.095.173-.176.36-.254.533l-4.477 4.928-.215-8.894c-.159-6.467-5.387-11.579-11.681-11.41-6.301.16-11.279 5.529-11.117 11.996 0 0 .402 36.846.445 39.295.127 7.677 6.812 11.938 11.692 11.392l40.826-4.626c6.265-.712 10.778-6.498 10.086-12.923"/><path fill="#f6921e" d="M137.368 167.936C96.02 209.252 15.514 246.332 2.743 232.855-10.734 218.63 28.26 137.76 69.606 96.434c41.348-41.317 64.163-32.948 82.872-13.202 18.716 19.743 26.238 43.387-15.11 84.704"/><path fill="#4d4e4e" d="M154.846 133.852c-1.958 2-9.777-2.826-17.468-10.775-7.694-7.948-12.34-16.01-10.386-18.007 1.958-2 9.78 2.826 17.47 10.778 7.695 7.946 12.342 16.007 10.384 18.004m-52.568-10.598c-1.961 1.997-8.192-1.186-13.921-7.106-5.73-5.927-8.792-12.344-6.834-14.341 1.958-1.997 8.189 1.189 13.922 7.109 5.733 5.92 8.791 12.344 6.833 14.338m-57.69 88.7c-1.961 1.998-8.188-1.185-13.921-7.105-5.733-5.923-8.792-12.344-6.837-14.337 1.958-1.997 8.192 1.181 13.925 7.101 5.73 5.924 8.788 12.345 6.834 14.342m63.934-36.988c-1.962 2-8.189-1.185-13.918-7.105-5.737-5.924-8.795-12.341-6.837-14.338 1.958-2 8.188 1.185 13.921 7.105 5.73 5.927 8.788 12.345 6.834 14.338m-36.825 3.204c-1.962 1.993-9.575-2.622-17.012-10.31-7.444-7.687-11.89-15.537-9.935-17.537 1.958-1.993 9.578 2.61 17.015 10.309 7.444 7.687 11.89 15.54 9.932 17.538"/></svg>