<svg xmlns="http://www.w3.org/2000/svg" xml:space="preserve" viewBox="0 0 229.306 172.139"><path fill="#726040" d="M112.674 138.894h-40.47l-2.127 18.032 5.684-3.21 4.78 3.21 5.959-3.21 5.938 3.21 5.94-3.21 5.96 3.21 4.78-3.21 5.684 3.21-2.128-18.032"/><path fill="#ab8f6d" d="M184.173 89.065c-6.788-41.334-65.635-55.799-65.639-60.35V-.098H66.348v28.813C66.341 33.266 7.494 47.73.706 89.065c-7.84 47.73 57.132 47.854 91.735 47.854s99.574-.124 91.732-47.854"/><path fill="#bb9c7c" d="M163.887 89.065c-5.289-41.334-53.114-53.823-53.118-58.374V-.1H74.113v30.79c-.007 4.55-47.832 17.04-53.121 58.374-6.107 47.73 44.495 47.854 71.45 47.854 26.95 0 77.552-.124 71.445-47.854"/><path fill="#d7c097" d="M101.896-.098h-19.46c0 63.804-24.785 83.73-24.414 117.627.374 34.461 68.429 35.33 68.838.003.346-29.945-24.964-56.225-24.964-117.63m28.062 158.576c-2.773-2.166-3.539-5.645-2.865-8.693 47.198 24.57 103.021-21.157 85.875-67.113 2.106-.758 4.569-.127 6.188 2.173 37.404 53.107-35.985 115.133-89.198 73.633"/><path fill="#bb9c7c" d="M127.093 149.785c.808-3.648 3.676-6.692 7.645-6.156 32.962 4.487 67.717-21.313 74.332-56.067.48-2.554 2.057-4.251 3.898-4.89 17.146 45.956-38.677 91.682-85.875 67.113"/></svg>