<svg xmlns="http://www.w3.org/2000/svg" xml:space="preserve" viewBox="0 0 229.307 195.82"><path fill="#43843e" d="M105.747 30.089c-.712-8.835 3.793-15.344 10.725-17.92 1.754-.655 12.274-.79 5.091-9.44-6.086-7.317-18.783 1.175-23.242 10.097-2.826 5.687-3.941 12.161-5.13 16.472-6.181 22.431-42.22 17.316-42.22 24.022 0 9.237 94.389 9.318 94.389.921 0-8.904-37.926-.769-39.613-24.152"/><path fill="#e38325" d="M194.55 116.599c-3.203 35.019-29.247 66.047-51.522 63.645-22.28-2.406-32.36-37.333-29.156-72.352 3.2-35.023 23.857-61.462 46.136-59.056 22.28 2.406 37.742 32.744 34.543 67.763"/><path fill="#f79420" d="M174.882 124.177c-4.403 37.086-36.328 66.418-59.835 63.63-23.507-2.79-29.692-36.644-25.289-73.73 4.4-37.087 16.339-65.28 50.528-62.104 23.567 2.19 38.995 35.114 34.596 72.204"/><path fill="#e38325" d="M.532 116.599c3.203 35.019 29.243 66.047 51.523 63.645 22.279-2.406 32.355-37.333 29.155-72.352-3.203-35.023-23.86-61.462-46.136-59.056C12.795 51.242-2.672 81.58.532 116.6"/><path fill="#f79420" d="M20.2 124.177c4.4 37.086 36.325 66.418 59.832 63.63 23.507-2.79 29.691-36.644 25.292-73.73-4.4-37.087-16.342-65.28-50.528-62.104-23.57 2.19-38.995 35.114-34.596 72.204"/><path fill="#f9a83e" d="M138.604 122.399c0 38.211-19.496 69.826-41.31 70.32-.18.01-.363.01-.547.01-22.452 0-41.556-32.425-41.556-70.33 0-37.895 9.815-70.67 41.556-70.327.1 0 .184 0 .283.014a.665.665 0 0 1 .236 0h.028c32.116-.357 41.31 32.291 41.31 70.313"/><path fill="#ffdc93" d="M138.265 73.892c1.93 1.602 19.146 10.157 18.352 17.88.953-9.26-1.813-24.47-11.204-28.979-6.898-3.31-14.804 4.742-7.148 11.1"/><path fill="#eb2027" d="M92.489 166.495c-2.47 15.975-13.498 29.272-29.388 29.286h-.025c-16.79 0-27.123-13.276-29.413-29.286-1.767-12.373 8.71-25.306 17.354-25.094 2.745.063 6.986 1.538 10.256 1.979l.078.01c4.632.713 8.802-2.201 12.531-2.201 8.256 0 20.752 11.42 18.607 25.306"/><path fill="#d1202c" d="M62.67 143.475a9.82 9.82 0 0 1-1.32-.085l-.077-.01c-3.27-.441-7.51-1.916-10.256-1.98-8.643-.211-19.121 12.722-17.354 25.095 2.269 15.88 12.465 29.05 29.007 29.265v-52.285"/><path fill="#009348" d="M72.069 132.785c-.272-.17-1.771 3.334-5.172 6.672a18.92 18.92 0 0 0-1.898 2.17c.212-1.09-.053-2.259-.3-3.26-.06-.24-1.856-8.1-2.032-8.1-.325 0-.113 3.827-1.224 8.463-.29 1.21-.385 2.272-.572 3.217-.536-.765-1.238-1.601-2.141-2.49-3.401-3.341-4.897-6.845-5.172-6.672-.31.194 1.83 5.405 2.97 9.773.402 1.538.942 2.476 1.528 3.016.077.081.17.162.282.237 1.083.769 3.44.99 4.77.99 2.579 0 5.052-.366 5.997-2.765.057-.141 3.091-11.17 2.964-11.25"/><path fill="#f9c3c4" d="M76.15 153.34c1.073.585 10.12 3.076 10.458 6.847-.406-4.523-3.154-11.547-8.072-12.831-3.613-.942-6.647 3.655-2.385 5.983"/><path fill="#3bb44a" d="M197.486 184.139c.063.878.504 1.605.984 1.626l29.808 1.217c.477.018.808-.677.745-1.552-.067-.879-.508-1.605-.988-1.626l-29.808-1.218c-.477-.017-.808.678-.741 1.553m-1.062-4.947c.088.875.54 1.57 1.016 1.553l31.28-1.256c.472-.021.786-.748.698-1.623-.088-.879-.544-1.574-1.016-1.556l-31.28 1.26c-.472.017-.786.744-.698 1.622"/><path fill="#8dc540" d="M195.845 174.62c.12.875.6 1.514 1.066 1.433l30.771-5.48c.466-.08.748-.857.624-1.728-.123-.875-.6-1.517-1.065-1.433l-30.771 5.476c-.47.085-.748.86-.625 1.732m-.151-4.773c.144.868.635 1.471 1.093 1.344l28.926-7.92c.459-.124.713-.932.572-1.8-.145-.868-.635-1.467-1.097-1.344l-28.926 7.92c-.459.124-.713.932-.568 1.8"/><path fill="#ee4023" d="M87.19 190.793a5.7 5.7 0 0 0 5.655 4.995l101.05-.032c5.549-.003 9.846-4.865 9.162-10.372l-2.255-18.127c-.684-5.525-6.064-9.19-11.455-7.807L91.43 184.57a5.698 5.698 0 0 0-4.241 6.223"/><path fill="#eb6624" d="m200.802 167.257 1.179 9.466L87.22 190.98c-.01-.064-.024-.124-.031-.187a5.698 5.698 0 0 1 4.24-6.224l97.917-25.12c5.39-1.382 10.77 2.283 11.455 7.808"/><path fill="#ee4023" d="M190.08 171.65c.52 4.163.269 7.62-.557 7.722-.829.103-1.916-3.189-2.434-7.352-.515-4.163-.265-7.624.56-7.726.826-.103 1.916 3.189 2.432 7.356m-25.536 6.696c.515 4.163.265 7.62-.561 7.726-.826.102-1.916-3.193-2.43-7.356-.52-4.163-.269-7.62.557-7.723.825-.105 1.915 3.19 2.434 7.353m-24.322 5.641c.515 4.163.264 7.624-.561 7.726-.826.103-1.916-3.189-2.434-7.356-.515-4.163-.265-7.62.56-7.722.826-.103 1.916 3.189 2.435 7.352"/><path fill="#eb6624" d="M178.646 180.724c.519 4.166.268 7.624-.56 7.726-.826.102-1.916-3.19-2.431-7.352-.519-4.167-.269-7.624.557-7.727.83-.102 1.916 3.19 2.434 7.353m-26.262.86c.515 4.163.264 7.624-.561 7.727-.826.102-1.916-3.19-2.43-7.353-.52-4.166-.269-7.624.557-7.726.825-.102 1.915 3.19 2.434 7.352m-25.437 2.632c.519 4.167.268 7.624-.557 7.727-.826.102-1.916-3.19-2.435-7.353-.518-4.166-.264-7.624.561-7.726.826-.102 1.916 3.19 2.431 7.352"/></svg>