<svg xmlns="http://www.w3.org/2000/svg" xml:space="preserve" viewBox="0 0 158.802 281.164"><path fill="#405526" d="m58.208 12.563-16.457 6.96 26.06 61.613 16.457-6.96-26.06-61.613"/><path fill="#39481e" d="m116.35 19.7-16.398-7.095-26.574 61.39 16.397 7.099L116.35 19.7"/><path fill="#405526" d="M67.812-.046v101.574H79.41V-.046H67.812"/><path fill="#39481e" d="M79.41-.046v101.574h11.578V-.046H79.41"/><path fill="#602d13" d="M92.476 281.135H65.299v-12.02h27.177v12.02"/><path fill="#eed8aa" d="M79.399 101.528v171.606C39.7 273.134.003 252.682.003 211.725c0-64.943 56.519-51.974 65.042-93.277 1.113-5.408 2.026-11.162 2.767-16.92h11.587"/><path fill="#e4ce97" d="M158.815 211.725c0 40.932-39.722 61.409-79.416 61.409V101.528h11.61c.741 5.804 1.655 11.561 2.765 16.92 8.523 41.303 65.04 28.334 65.04 93.277"/><path fill="#eed8aa" d="M67.812 101.528V91.94l4.281 2.089 7.306-2.089v9.59H67.812"/><path fill="#e4ce97" d="M90.988 101.528V91.94l-4.282 2.089-7.307-2.089v9.59h11.589"/></svg>