<svg xmlns="http://www.w3.org/2000/svg" xml:space="preserve" viewBox="0 0 287.99 180.661"><path fill="#e33326" d="M233.022 101.8c6.549-5.986 11.771-13.466 14.958-21.756.058-.156.12-.304.176-.459a53.35 53.35 0 0 0 1.258-3.782c5.476-18.702-.51-38.536-15.033-51.445-13.066-11.618-33.05-12.468-49.542-6.661-16.484 5.81-30.305 17.213-43.75 28.393-40.788 33.922-71.678 67.515-131.167 44.428-16.626-6.449-8.543 9.695-3.042 16.645 20.501 25.949 47.725 34.776 81.064 37.775 51.73 4.65 106.77-8.062 145.078-43.137"/><path fill="#77aa42" d="m247.76 41.267-3.521-6.174 36.091-23.006a5.133 5.133 0 1 1 5.088 8.916L247.76 41.267"/><path fill="#557837" d="M266.544 59.832c4.564-.625 8.929-2.854 12.142-6.65l-23.747-20.103-5.232-30.676c-4.902.84-9.041 3.464-11.9 7.08l-5.472-9.581c-9.28 5.295-12.51 17.11-7.213 26.396l20.49 35.901c5.295 9.282 17.117 12.517 26.398 7.218l-5.466-9.585"/><path fill="#b52525" d="M237.905 120.383c0 33.244-26.949 60.191-60.189 60.191-33.24 0-60.19-26.947-60.19-60.191 0-33.238 26.95-60.184 60.19-60.184 33.24 0 60.189 26.946 60.189 60.184"/><path fill="#e88824" d="M228.345 120.383c0 27.963-22.666 50.63-50.629 50.63-27.962 0-50.629-22.667-50.629-50.63s22.667-50.63 50.63-50.63c27.962 0 50.628 22.667 50.628 50.63"/><path fill="#fcb713" d="M194.887 120.386c0 9.484-7.685 17.171-17.17 17.171s-17.174-7.687-17.174-17.17c0-9.488 7.687-17.175 17.173-17.175s17.171 7.687 17.171 17.174"/><path fill="#ffd272" d="M184.644 88.447c0 6.135-3.104 11.113-6.928 11.113-3.829 0-6.932-4.978-6.932-11.113s3.103-11.11 6.932-11.11c3.824 0 6.928 4.975 6.928 11.11m-20.096 2.029c3.606 4.964 4.022 10.813.928 13.06-3.098 2.248-8.533.053-12.14-4.914-3.606-4.964-4.022-10.813-.926-13.068 3.099-2.247 8.531-.042 12.138 4.922m-15.065 13.449c5.835 1.898 9.608 6.385 8.425 10.026-1.182 3.641-6.87 5.056-12.711 3.161-5.835-1.901-9.608-6.389-8.423-10.03 1.183-3.637 6.871-5.052 12.71-3.157m-4.285 19.735c5.84-1.89 11.525-.48 12.712 3.161 1.182 3.641-2.59 8.129-8.428 10.027-5.838 1.894-11.526.48-12.71-3.161-1.182-3.641 2.591-8.125 8.426-10.027m8.14 18.49c3.609-4.963 9.039-7.161 12.14-4.918 3.093 2.251 2.683 8.1-.929 13.065-3.607 4.967-9.041 7.169-12.14 4.918-3.093-2.255-2.678-8.1.929-13.064m17.45 10.17c.002-6.138 3.1-11.105 6.927-11.112 3.83 0 6.933 4.974 6.93 11.113 0 6.138-3.1 11.113-6.93 11.113-3.827 0-6.927-4.975-6.927-11.113m20.096-2.029c-3.61-4.967-4.02-10.81-.929-13.06 3.099-2.251 8.534-.05 12.14 4.918 3.607 4.963 4.022 10.81.924 13.064-3.096 2.243-8.528.046-12.135-4.922m15.064-13.449c-5.837-1.901-9.605-6.385-8.427-10.026 1.182-3.638 6.87-5.056 12.714-3.158 5.835 1.898 9.608 6.386 8.423 10.027-1.183 3.64-6.874 5.055-12.71 3.157m4.282-19.739c-5.838 1.895-11.522.484-12.71-3.154-1.182-3.644 2.588-8.132 8.428-10.03 5.836-1.894 11.527-.483 12.71 3.158 1.18 3.64-2.588 8.132-8.428 10.026m-8.137-18.486c-3.61 4.963-9.039 7.161-12.138 4.921-3.096-2.25-2.685-8.1.929-13.068 3.607-4.964 9.039-7.165 12.135-4.918 3.093 2.255 2.683 8.1-.926 13.065"/></svg>