<svg xmlns="http://www.w3.org/2000/svg" xml:space="preserve" viewBox="0 0 229.306 247.287"><path fill="#cea945" d="M86.96 79.154c-12.56 8.926-29.54 9.148-43.772 15.78C9.292 110.734-9.779 159.73 5.134 191.289c31.307 66.231 106.841 74.074 171.45 21.595 55.256-44.859 69.264-146.825 31.655-193.137-17.253-21.253-45.39-25.187-68.974-12.659-28.193 14.977-27.3 43.328-45.414 65.618a34.918 34.918 0 0 1-6.891 6.449"/><path fill="#8a6929" d="M198.443 75.033c-9.552 2.456-19.66-8.432-20.6-19.309l20.6 19.31"/><path fill="#8a6929" d="M195.678 81.556c-4.002 0-8.073-1.365-11.794-4.004-6.7-4.749-11.488-13.11-12.193-21.298a6.173 6.173 0 0 1 5.622-6.682 6.178 6.178 0 0 1 6.682 5.623c.395 4.576 3.286 9.628 7.03 12.281 1.457 1.034 3.663 2.142 5.883 1.577a6.17 6.17 0 0 1 7.516 4.445 6.172 6.172 0 0 1-4.443 7.515 17.236 17.236 0 0 1-4.303.543m-43.252 60.114c.421 14.105 16.716 24.629 26.191 17.845l-26.191-17.845"/><path fill="#8a6929" d="M178.46 166.39c-5.64 2.54-12.623 1.613-18.912-2.666-7.334-4.986-11.867-13.15-12.127-21.825-.103-3.415 2.06-6.28 4.822-6.396 2.763-.13 5.086 2.533 5.188 5.938.123 4.244 2.79 8.64 6.956 11.473 4.2 2.857 8.804 3.355 11.718 1.263 2.376-1.718 5.456-.71 6.846 2.244 1.387 2.949.574 6.727-1.818 8.435a14.977 14.977 0 0 1-2.674 1.535m-75.248-36.145c-10.042-.67-18.3-8.643-17.018-18.938l17.018 18.938"/><path fill="#8a6929" d="M103.217 136.424c-.138 0-.277-.007-.417-.018-7.045-.469-13.542-3.711-17.827-8.908-3.933-4.763-5.677-10.785-4.91-16.956.424-3.383 3.505-5.764 6.893-5.366a6.181 6.181 0 0 1 5.365 6.894c-.442 3.542.939 6.068 2.175 7.568 2.132 2.582 5.457 4.205 9.127 4.448a6.176 6.176 0 0 1-.406 12.337m-12.172 41.384c-5.443 11.174 5.94 24.245 17.639 21.722l-17.639-21.722"/><path fill="#8a6929" d="M105.796 206.01c-6.595 0-13.166-3.214-17.554-8.806-5.141-6.558-6.194-15.025-2.747-22.1a6.176 6.176 0 0 1 8.255-2.843 6.167 6.167 0 0 1 2.846 8.252c-2.042 4.195.529 8.002 1.367 9.07 2.421 3.088 6.118 4.605 9.419 3.913a6.179 6.179 0 0 1 7.338 4.731 6.177 6.177 0 0 1-4.733 7.342 20.001 20.001 0 0 1-4.19.441m-72.174-58.572c-6.313 9.353.808 18.628 9.865 18.205l-9.865-18.205"/><path fill="#8a6929" d="M42.917 171.83c-6.526 0-12.633-3.464-15.737-8.985-3.245-5.775-2.746-12.831 1.326-18.86a6.167 6.167 0 0 1 8.574-1.666 6.176 6.176 0 0 1 1.663 8.573c-1.025 1.52-1.994 3.772-.794 5.903.972 1.735 3.086 2.822 5.25 2.68 3.443-.123 6.296 2.477 6.458 5.882a6.18 6.18 0 0 1-5.882 6.456c-.285.01-.573.018-.858.018M130.79 50.35c-3.838 10.612 5.34 17.863 14.017 15.234L130.79 50.351"/><path fill="#8a6929" d="M141.238 72.288c-4.868 0-9.6-1.915-12.93-5.426-4.557-4.805-5.801-11.766-3.324-18.613a6.177 6.177 0 0 1 7.906-3.705 6.17 6.17 0 0 1 3.706 7.906c-.621 1.722-1.008 4.142.674 5.917 1.369 1.436 3.623 1.947 5.749 1.309a6.177 6.177 0 0 1 7.698 4.12 6.171 6.171 0 0 1-4.119 7.699 18.539 18.539 0 0 1-5.36.793"/></svg>