<svg xmlns="http://www.w3.org/2000/svg" xml:space="preserve" viewBox="0 0 164.846 246.592"><path fill="#5c7635" d="M146.41 139.669c-2.2 2.367-52.154 73.216-51.596 106.838-2.103-2.103-6.788-3.553-12.221-3.574L82.399-.04h.099c18.67-.438 35.964 13.188 39.803 33.308 21.813-11.233 42.561 2.656 42.586 27.705.025 22.029-13.576 31.957-15.29 37.753 12.873 9.01 9.469 27.247-3.186 40.943"/><path fill="#698e3d" d="M82.498-.09v243.023c-5.412 0-10.073 1.4-12.25 3.475.434-33.646-49.47-104.347-51.667-106.715-12.68-13.695-16.084-31.932-3.21-40.967C13.627 92.954.03 83.051.03 60.998c0-25.049 20.748-38.939 42.561-27.73C46.431 13.123 63.75-.548 82.498-.09"/><path fill="#839e3c" d="M122.403 141.182c-17.633-3.383-31.904 10.411-38.148 17.838v-23.172c1.972-3.94 12.686-23.288 32.457-22.622.928.032 1.732-.631 1.817-1.555l.004-.06c.084-.967-.642-1.839-1.61-1.874-16.743-.614-27.528 11.523-32.668 19.235V107.37c1.679-3.024 9.038-15.16 20.137-17.862.85-.209 1.373-1.062 1.235-1.927l-.007-.05c-.162-1.012-1.16-1.64-2.152-1.396-8.933 2.208-15.498 9.473-19.213 14.705V66.209a1.935 1.935 0 0 0-3.87 0v34.165c-3.769-5.186-10.204-12.094-18.879-14.24-.991-.243-1.99.385-2.152 1.398l-.007.05c-.138.864.388 1.717 1.235 1.926 10.499 2.554 17.636 13.533 19.802 17.276v21.694c-5.26-7.726-15.94-19.34-32.334-18.74-.966.034-1.693.906-1.609 1.873l.004.06c.085.924.89 1.587 1.817 1.555 18.857-.635 29.47 16.92 32.122 21.973v23.426c-6.406-7.508-20.487-20.766-37.813-17.443-.952.184-1.534 1.164-1.295 2.103l.015.056c.225.9 1.121 1.426 2.035 1.256 18.388-3.418 33.46 14.843 37.058 19.648v24.096c-5.26-7.726-15.94-19.344-32.334-18.74-.966.035-1.693.906-1.609 1.873l.004.056c.085.924.89 1.588 1.817 1.56 18.857-.64 29.47 16.92 32.122 21.968v14.938c-3.637-4.968-10.358-11.54-20.332-11.17-.627.021-1.104.59-1.044 1.217v.04c.053.602.575 1.033 1.182 1.015 10.99-.37 17.668 8.725 20.194 13.008v28.827h3.87v-28.245c2.23-3.969 9.015-13.978 20.53-13.59.603.018 1.129-.413 1.182-1.016l.003-.039c.057-.628-.416-1.196-1.047-1.217-10.281-.38-17.115 6.622-20.667 11.636V195.71c1.972-3.944 12.686-23.288 32.457-22.622.928.029 1.732-.635 1.817-1.559l.004-.056c.084-.967-.642-1.838-1.61-1.874-16.743-.614-27.528 11.52-32.668 19.231v-24.135c2.882-3.947 18.36-23.634 37.396-20.099.914.17 1.807-.356 2.036-1.256l.01-.056c.24-.939-.338-1.92-1.294-2.103"/></svg>