<svg xmlns="http://www.w3.org/2000/svg" xml:space="preserve" viewBox="0 0 229.306 269.445"><path fill="#ed302c" d="M228.005 171.56c-12.412 69.286-50.863 97.856-113.602 97.856-62.735 0-104.249-27.974-113.594-97.856-8.122-60.703 48.414-118.954 113.594-97.853 72.984-23.228 123.995 39.842 113.602 97.853"/><path fill="#f27b7d" d="M62.721 138.714c-18.75 14.624-21.048 46.721-31.642 41.69-20.448-9.705-11.586-38.924-1.39-60.41 10.2-21.482 24.251-22.723 37.802-16.288 13.551 6.431 11.42 22.388-4.77 35.008"/><path fill="#3a9d47" d="M113.087 67.43c-9.095-25.88-4.212-53.173 23.003-67.476l8.347 20.632c-19.683 6.421-22.847 23.094-20.117 43.285.018.106.032.162.032.162l-11.265 3.398"/><path fill="#3a9d47" d="M144.797 67.784c-.42-8.023 20.222-11.008 14.824-24.57-19.188 13.562-33.625 9.42-43.602 22.915-9.977-13.495-24.414-9.353-43.6-22.914-5.397 13.561 16.406 15.389 15.986 23.408-16.288 3.284-29.84-6.866-52.655-11.438 13.798 16.557 17.39 30.789 51.805 24.513 8.682-1.193 24.618 5.098 26.181 4.897 2.629-.343 21.68-7.441 34.236-5.144 41.803 2.826 34.518-7.709 48.32-24.266-22.82 4.572-35.203 15.887-51.495 12.599"/></svg>