<svg xmlns="http://www.w3.org/2000/svg" xml:space="preserve" viewBox="0 0 207.433 271.992"><path fill="#405526" d="m115.91 83.373 36.322-63.296c-8.517-4.886-19.006-3.126-25.529 3.63l4.167-19.442c-11.34-2.431-22.502 4.794-24.933 16.13L101.5 41.104l-4.996-23.359C94.08 6.406 85.856-1.451 78.143.2l5.917 27.663-.014-.024c-5.772-10.059-18.603-13.534-28.662-7.762l36.321 63.296h24.206"/><path fill="#d5c299" d="M90.908 248.3c1.75 3.62 5.768 12.715 8.876 20.907 1.401 3.711 6.647 3.711 8.051 0 3.105-8.192 7.12-17.287 8.877-20.907 17.27-35.665 75.548-28.891 88.302-82.453H2.602c12.75 53.562 71.03 46.788 88.306 82.453"/><path fill="#a64977" d="M110.834 68.001c-2.35 0-4.703.057-7.024.17-2.325-.113-4.678-.17-7.028-.17-48.32 0-96.699 24.943-96.699 74.776 0 8.785.924 16.374 2.52 23.07h202.411c1.591-6.696 2.515-14.285 2.515-23.07 0-49.833-48.375-74.776-96.695-74.776"/><path fill="#90836e" d="M67.669 183.857c7.127 13.971-29.974 16.765-25.024 1.888 3.306 6.495 22.727 5.038 25.024-1.888m48.425 20.075c7.123 13.97-29.977 16.765-25.027 1.89 3.305 6.492 22.727 5.035 25.027-1.89m48.422-20.075c7.127 13.971-29.974 16.765-25.028 1.888 3.306 6.495 22.728 5.038 25.028-1.888"/></svg>