<svg xmlns="http://www.w3.org/2000/svg" viewBox="0 0 317.896 299.94"><g data-name="Groupe 2"><path fill="#a5eb78" d="M9.651 79.434a8.92 8.92 0 0 0-7.068 2.546 8.822 8.822 0 0 0-2.546 7.073c7.077 74.219 66.2 133.215 140.584 140.27.28.025.56.043.836.043a8.826 8.826 0 0 0 8.783-9.658C143.165 145.482 84.04 86.49 9.651 79.434Z" data-name="Tracé 1"/><path fill="#8cd76e" d="M140.624 229.323c.28.025.56.043.836.043a8.808 8.808 0 0 0 6.237-2.585L2.775 81.86c-.055.053-.136.066-.19.12a8.822 8.822 0 0 0-2.546 7.073c7.077 74.219 66.203 133.215 140.585 140.27Z" data-name="Tracé 2"/><path fill="#a5eb78" d="M308.242 35.321a8.92 8.92 0 0 1 7.068 2.546 8.822 8.822 0 0 1 2.541 7.073c-7.077 74.219-66.2 133.215-140.584 140.27-.28.025-.56.043-.836.043a8.826 8.826 0 0 1-8.78-9.653c7.077-74.226 66.2-133.217 140.589-140.274Z" data-name="Tracé 3"/><path fill="#8cd76e" d="M177.271 185.211c-.28.025-.56.043-.836.043a8.808 8.808 0 0 1-6.237-2.585L315.12 37.747c.055.053.136.066.19.12a8.822 8.822 0 0 1 2.541 7.073c-7.078 74.218-66.2 133.214-140.585 140.271Z" data-name="Tracé 4"/><g fill="#73be73" data-name="Groupe 1"><path d="M158.793 299.94a8.82 8.82 0 0 1-8.822-8.824V61.752a35.327 35.327 0 0 1 35.287-35.287 8.822 8.822 0 0 1 0 17.644 17.662 17.662 0 0 0-17.644 17.644V291.12a8.817 8.817 0 0 1-8.821 8.82Z" data-name="Tracé 6"/><path d="M158.793 247.949a8.787 8.787 0 0 1-6.237-2.585l-96.73-96.73a8.821 8.821 0 0 1 12.475-12.475l96.73 96.73a8.822 8.822 0 0 1-6.238 15.06Z" data-name="Tracé 7"/></g><path fill="#a5eb78" d="M140.651 105.854c-.3 0-.606-.014-.912-.042A105.9 105.9 0 0 1 44.462 10.53 9.628 9.628 0 0 1 54.951.037a105.9 105.9 0 0 1 95.282 95.282 9.626 9.626 0 0 1-9.581 10.535Z" data-name="Tracé 8"/><path fill="#73be73" d="M158.793 202.9a8.822 8.822 0 0 1-6.237-15.06l88.218-88.218a8.823 8.823 0 1 1 12.477 12.478l-88.22 88.215a8.791 8.791 0 0 1-6.238 2.585Z" data-name="Tracé 9"/><path fill="#8cd76e" d="M139.746 105.811a9.618 9.618 0 0 0 7.716-2.778L47.24 2.813a9.62 9.62 0 0 0-2.777 7.716 105.9 105.9 0 0 0 95.283 95.282Z" data-name="Tracé 10"/><path fill="#73be73" d="M158.793 123.5a8.787 8.787 0 0 1-6.237-2.585L91.113 59.476A8.822 8.822 0 1 1 103.588 47l61.443 61.443a8.822 8.822 0 0 1-6.238 15.06Z" data-name="Tracé 11"/></g></svg>