<svg xmlns="http://www.w3.org/2000/svg" viewBox="0 0 467.799 195.87"><path fill="#f0c087" d="M459.733 6.118a35.48 35.48 0 0 0-32.962 7.867l-69.605 56.654a17.631 17.631 0 0 1-8.516 3.764L244.772 85.591l-2 .012a9.932 9.932 0 0 1-3.342-19.285l57.571-22.958c14.611-5.514 23.479-17.781 19.482-29.774C311.648-.92 299.575-1.852 284.871 1.823l-60.96 17.573-92.561 6.177a123.5 123.5 0 0 0-79.112 35.9l-43.78 43.78c-9.963 9.964-11.583 26.267-2.394 36.948 3.889 4.522 29.813 29.057 48.349 46.811a24.726 24.726 0 0 0 32.948 1.116l21.109-17.591a52.944 52.944 0 0 1 33.888-12.271l111.466-.011a105.842 105.842 0 0 0 37.985-7.053l85.274-32.8a45.618 45.618 0 0 0 18.671-13.375l69.516-83.419a10.877 10.877 0 0 0-5.537-17.486Z" data-name="Tracé 5"/></svg>